#!OML:ASF H:\Terrain\Walking\May29\JustinRory\Justin.ASF
:FULLY-SPECIFIED
:DEGREES
960
root 9.269404710578842 17.84435528942116 15.514203193612774 -174.3356016566866 6.484679520958082 -171.86715660678638 
lowerback 1.9714233532934133 3.506192449101796 4.09356222754491 
upperback -0.0038654536526945837 4.855669161676646 1.7731153093812375 
thorax -0.9193777964071859 2.4399181616766468 -0.5878301077844306 
lowerneck -18.919480439121756 -2.053793393213573 -10.326340319361277 
upperneck 23.202701596806385 -0.572770634730539 0.8340245029940121 
head 10.66758123752495 -1.3330364870259481 1.8832545109780439 
rclavicle 1.1305679061876247e-13 2.7901269061876238e-15 
rhumerus -23.41269281437126 -7.687085588822356 -78.13562155688624 
rradius 38.80436706586826 
rwrist -21.01333232734531 
rhand -12.892756686626745 18.286364870259433 
rfingers 7.12502 
rthumb 13.196570259481037 -6.245991516966068 
lclavicle 1.1305679061876247e-13 2.7901269061876238e-15 
lhumerus -37.84885808383233 10.340441516966068 80.8277003992016 
lradius 30.312282834331334 
lwrist -9.11512878243513 
lhand 1.5096045708582837 37.82185249500998 
lfingers 7.12502 
lthumb 27.03551876247505 65.90649381237525 
rfemur 7.961360878243511 0.2214544670658678 26.115588622754487 
rtibia 29.02133932135729 
rfoot -7.894308622754492 2.94597860279441 
rtoes -4.310245349301397 
lfemur -27.189540119760473 1.4082175449101806 -13.887721756487027 
ltibia 26.600992814371256 
lfoot 0.2613386706586809 1.7268260678642733 
ltoes -3.478024031936128 
961
root 9.266138323353292 17.845261676646707 15.56725988023952 -174.69465856287422 6.555941017964074 -172.20899137724547 
lowerback 1.967542874251497 3.5114506706586823 4.102874766467066 
upperback -0.004359905988023938 4.863009281437126 1.7721445508982034 
thorax -0.917203682634731 2.4435912814371257 -0.5941445209580833 
lowerneck -18.928283233532934 -2.048838622754491 -10.322605988023952 
upperneck 23.20362994011976 -0.5653944011976049 0.8283744311377248 
head 10.668898203592814 -1.330424131736527 1.8815095808383235 
rclavicle 1.132602491017964e-13 2.8175044910179624e-15 
rhumerus -23.41446526946108 -7.681754790419163 -78.12250419161677 
rradius 38.83415748502994 
rwrist -21.05639913772455 
rhand -12.891462874251497 19.010841317365248 
rfingers 7.12502 
rthumb 13.19781736526946 -6.239998443113773 
lclavicle 1.132602491017964e-13 2.8175044910179624e-15 
lhumerus -37.87026407185628 10.326678443113773 80.83655748502994 
lradius 30.289328143712574 
lwrist -9.120894670658682 
lhand 1.5050882035928148 37.81765928143712 
lfingers 7.12502 
lthumb 27.031201796407185 65.90300898203593 
rfemur 8.008816467065866 0.2290962574850295 26.129661676646705 
rtibia 29.016462275449104 
rfoot -7.881461676646707 2.974698802395208 
rtoes -4.316130299401197 
lfemur -27.223277245508974 1.3998764670658685 -13.885332934131737 
ltibia 26.585965269461077 
lfoot 0.3059075748502984 1.7003137724550914 
ltoes -3.463450598802395 
962
root 9.262871936127745 17.846168063872256 15.620316566866267 -175.05371546906184 6.627202514970058 -172.55082614770456 
lowerback 1.963662395209581 3.5167088922155685 4.112187305389222 
upperback -0.004854358323353264 4.870349401197604 1.7711737924151696 
thorax -0.9150295688622758 2.4472644011976046 -0.6004589341317361 
lowerneck -18.937086027944112 -2.043883852295409 -10.318871656686627 
upperneck 23.204558283433133 -0.5580181676646707 0.8227243592814375 
head 10.670215169660679 -1.327811776447106 1.8797646506986028 
rclavicle 1.1346370758483034e-13 2.8448820758483026e-15 
rhumerus -23.4162377245509 -7.676423992015969 -78.1093868263473 
rradius 38.86394790419162 
rwrist -21.09946594810379 
rhand -12.890169061876247 19.735317764471006 
rfingers 7.12502 
rthumb 13.199064471057884 -6.234005369261478 
lclavicle 1.1346370758483034e-13 2.8448820758483026e-15 
lhumerus -37.89167005988024 10.312915369261479 80.84541457085828 
lradius 30.266373453093813 
lwrist -9.126660558882236 
lhand 1.5005718363273455 37.81346606786427 
lfingers 7.12502 
lthumb 27.02688483033932 65.8995241516966 
rfemur 8.056272055888222 0.23673804790419117 26.14373473053892 
rtibia 29.01158522954092 
rfoot -7.868614730538923 3.003419001996006 
rtoes -4.322015249500998 
lfemur -27.257014371257476 1.3915353892215574 -13.882944111776448 
ltibia 26.570937724550898 
lfoot 0.35047647904191237 1.6738014770459095 
ltoes -3.448877165668663 
963
root 9.259605548902195 17.847074451097804 15.673373253493013 -175.4127723752495 6.69846401197605 -172.89266091816364 
lowerback 1.9597819161676648 3.5219671137724555 4.121499844311377 
upperback -0.005348810658682618 4.877689520958084 1.7702030339321357 
thorax -0.9128554550898207 2.4509375209580835 -0.6067733473053889 
lowerneck -18.94588882235529 -2.0389290818363275 -10.315137325349301 
upperneck 23.205486626746506 -0.5506419341317366 0.8170742874251498 
head 10.671532135728542 -1.3251994211576847 1.8780197205588824 
rclavicle 1.1366716606786427e-13 2.872259660678641e-15 
rhumerus -23.418010179640717 -7.671093193612775 -78.09626946107785 
rradius 38.8937383233533 
rwrist -21.142532758483032 
rhand -12.888875249500998 20.45979421157682 
rfingers 7.12502 
rthumb 13.200311576846307 -6.228012295409182 
lclavicle 1.1366716606786427e-13 2.872259660678641e-15 
lhumerus -37.91307604790419 10.299152295409183 80.85427165668663 
lradius 30.24341876247505 
lwrist -9.13242644710579 
lhand 1.4960554690618766 37.809272854291414 
lfingers 7.12502 
lthumb 27.022567864271455 65.89603932135728 
rfemur 8.103727644710577 0.24437983832335286 26.157807784431135 
rtibia 29.006708183632735 
rfoot -7.855767784431139 3.032139201596804 
rtoes -4.327900199600798 
lfemur -27.290751497005985 1.3831943113772462 -13.880555289421158 
ltibia 26.55591017964072 
lfoot 0.3950453832335299 1.6472891816367277 
ltoes -3.4343037325349304 
